<?xml version="1.0" standalone="no"?>
<!DOCTYPE svg PUBLIC "-//W3C//DTD SVG 20010904//EN"
 "http://www.w3.org/TR/2001/REC-SVG-20010904/DTD/svg10.dtd">
<svg version="1.0" xmlns="http://www.w3.org/2000/svg"
 width="300.000000pt" height="55.000000pt" viewBox="0 0 300.000000 55.000000"
 preserveAspectRatio="xMidYMid meet">

<g transform="translate(0.000000,55.000000) scale(0.100000,-0.100000)"
fill="#000000" stroke="none">
<path d="M2256 458 c-4 -51 -12 -124 -17 -162 -11 -67 -7 -81 19 -88 9 -2 15
12 17 45 6 67 40 127 73 127 12 0 14 -12 8 -76 -7 -76 1 -104 28 -104 16 0 20
188 5 206 -19 24 -46 16 -78 -23 l-30 -36 6 89 c5 72 3 92 -9 102 -13 10 -16
0 -22 -80z"/>
<path d="M240 533 c-8 -3 -25 -15 -37 -25 -22 -20 -44 -21 -100 -3 -29 9 -42
-19 -23 -49 8 -11 20 -33 28 -48 7 -16 18 -28 23 -28 5 0 10 -12 10 -27 1 -23
3 -24 6 -6 3 14 -9 40 -31 72 -33 46 -48 88 -28 79 62 -30 82 -44 77 -55 -16
-40 -16 -46 0 -24 10 12 32 30 49 37 l31 15 -35 -5 c-19 -3 -42 -1 -50 4 -13
8 -13 10 2 10 9 0 34 11 54 25 33 22 47 25 129 25 82 0 96 -3 129 -25 20 -14
45 -25 54 -25 15 0 15 -2 2 -10 -8 -5 -31 -7 -50 -4 l-35 5 31 -15 c17 -7 39
-25 49 -37 16 -22 16 -16 0 24 -5 11 15 25 78 55 18 9 4 -33 -28 -78 -33 -47
-34 -53 -29 -108 8 -74 -16 -126 -54 -119 -28 5 -35 -6 -34 -52 2 -48 -21 -81
-57 -81 -42 0 -57 22 -35 54 9 15 23 25 32 24 8 -2 17 2 19 9 4 12 -14 12 -34
0 -7 -5 -13 -5 -13 0 0 4 -11 8 -25 8 -14 0 -25 -4 -25 -8 0 -5 -6 -5 -12 0
-21 12 -39 12 -35 0 2 -7 11 -11 19 -9 9 1 23 -9 32 -24 22 -32 7 -54 -35 -54
-36 0 -59 33 -57 81 1 45 -7 59 -31 52 -27 -7 -61 41 -63 91 -1 39 -1 39 -5 7
-3 -18 1 -47 8 -63 11 -27 10 -32 -7 -42 -10 -6 -32 -14 -49 -18 -16 -3 2 -5
40 -3 l70 4 -74 -14 c-40 -8 -76 -17 -80 -21 -3 -4 6 -4 21 0 15 3 56 8 90 11
l63 5 -50 -14 -50 -14 50 5 c50 5 50 5 63 -31 7 -20 16 -36 20 -36 4 0 13 -4
21 -9 11 -7 11 -13 1 -32 -13 -23 -12 -24 7 -7 25 23 37 23 28 1 -5 -15 -4
-16 6 -6 17 17 51 17 68 1 10 -11 11 -10 6 4 -4 10 -4 18 1 18 4 0 16 -8 27
-18 19 -17 20 -16 7 7 -10 19 -10 25 1 32 8 5 17 9 21 9 4 0 13 16 20 36 13
36 13 36 63 31 l50 -5 -50 14 -50 14 65 -6 c36 -3 76 -7 90 -10 21 -4 22 -3 5
4 -11 5 -47 13 -80 17 l-60 8 40 8 c22 4 65 9 95 9 l55 2 -40 10 c-22 5 -55 7
-74 4 -31 -5 -33 -4 -25 17 5 12 8 55 7 95 -1 39 3 72 7 72 8 0 15 10 51 77
17 31 4 57 -24 48 -58 -18 -69 -17 -100 6 -28 21 -44 24 -132 26 -55 1 -107 0
-115 -4z m-20 -363 c0 -5 -2 -10 -4 -10 -3 0 -8 5 -11 10 -3 6 -1 10 4 10 6 0
11 -4 11 -10z m270 6 c0 -3 -4 -8 -10 -11 -5 -3 -10 -1 -10 4 0 6 5 11 10 11
6 0 10 -2 10 -4z m-126 -51 c-4 -8 -12 -15 -19 -15 -7 0 -15 7 -19 15 -4 11 1
15 19 15 18 0 23 -4 19 -15z m26 -83 c3 -3 -3 -2 -12 1 -10 4 -18 2 -18 -3 0
-6 -7 -10 -15 -10 -8 0 -15 4 -15 10 0 5 -8 7 -17 4 -10 -3 -7 1 7 9 23 14 50
10 70 -11z"/>
<path d="M2524 509 c-6 -10 51 -68 69 -69 16 -1 5 28 -21 53 -31 30 -38 32
-48 16z"/>
<path d="M1405 408 c-13 -170 -12 -202 6 -206 13 -2 17 13 23 95 4 54 10 114
14 133 7 32 11 35 42 35 26 0 38 -6 49 -26 12 -22 12 -29 0 -54 -14 -28 -26
-37 -64 -50 -28 -10 -1 -19 31 -11 41 11 74 53 74 95 0 20 -4 41 -8 47 -15 23
-54 35 -92 29 -23 -4 -41 -2 -45 4 -15 26 -22 5 -30 -91z"/>
<path d="M840 446 c0 -51 -16 -193 -25 -226 -4 -12 8 -15 68 -15 39 0 78 4 85
8 26 18 9 27 -49 27 l-61 0 8 68 c5 37 9 94 9 127 0 49 -3 60 -17 63 -15 3
-18 -5 -18 -52z"/>
<path d="M2120 446 c0 -25 -5 -35 -20 -39 -11 -3 -20 -13 -20 -22 0 -12 5 -15
22 -10 16 6 20 4 15 -8 -14 -37 -19 -135 -8 -156 13 -24 36 -29 27 -6 -3 8 0
51 6 95 10 73 13 80 33 80 13 0 25 7 29 15 4 11 -1 15 -19 15 -18 0 -25 5 -25
19 0 30 -11 51 -26 51 -9 0 -14 -12 -14 -34z"/>
<path d="M1160 388 c0 -79 -49 -168 -84 -155 -41 16 -31 92 20 142 28 29 31
35 16 35 -69 0 -128 -128 -86 -188 21 -31 57 -28 93 9 26 26 31 28 31 12 0
-20 18 -43 32 -43 5 0 6 11 2 25 -3 13 -1 56 6 95 9 55 9 74 0 85 -20 24 -30
18 -30 -17z"/>
<path d="M1750 373 c0 -27 -9 -67 -19 -90 -26 -56 -75 -70 -81 -23 -7 49 2 75
39 111 37 38 38 39 14 39 -75 0 -135 -167 -73 -200 29 -15 46 -12 78 15 l29
24 11 -24 c21 -45 29 -27 36 75 7 104 5 120 -20 120 -10 0 -14 -13 -14 -47z"/>
<path d="M1869 374 c0 -27 -4 -71 -8 -97 -6 -37 -5 -52 6 -63 22 -21 33 -8 33
39 0 70 52 149 80 121 8 -8 8 -30 -1 -78 -9 -52 -8 -70 1 -81 20 -24 41 -19
35 8 -4 12 -2 51 4 85 18 113 -20 146 -85 75 -34 -36 -34 -37 -34 -11 0 14 -7
31 -15 38 -13 11 -15 6 -16 -36z"/>
<path d="M2520 407 c-32 -16 -60 -71 -60 -118 0 -48 32 -89 69 -89 29 0 81 33
81 52 0 6 -8 4 -17 -4 -45 -39 -93 -25 -93 28 0 21 4 24 38 24 53 0 82 23 82
65 0 51 -45 70 -100 42z m58 -38 c3 -29 -12 -46 -48 -51 -20 -2 -24 1 -22 17
10 60 64 86 70 34z"/>
<path d="M2683 400 c3 -11 1 -54 -4 -96 -7 -55 -7 -80 2 -90 20 -24 26 -16 32
40 3 30 13 71 22 90 20 42 50 50 43 11 -5 -26 -1 -30 18 -17 18 12 24 42 14
63 -15 27 -34 24 -62 -10 l-25 -28 -10 28 c-13 33 -38 40 -30 9z"/>
<path d="M2878 391 c-27 -24 -32 -36 -36 -88 -4 -52 -1 -64 17 -82 28 -28 73
-27 108 3 37 32 23 44 -17 15 -38 -29 -63 -18 -68 30 -3 30 -2 31 35 31 46 0
83 29 83 65 0 58 -69 73 -122 26z m77 -2 c14 -22 -5 -57 -36 -68 -41 -14 -39
-14 -39 8 0 23 37 71 55 71 8 0 17 -5 20 -11z"/>
<path d="M251 394 c0 -11 3 -14 6 -6 3 7 2 16 -1 19 -3 4 -6 -2 -5 -13z"/>
<path d="M281 394 c0 -11 3 -14 6 -6 3 7 2 16 -1 19 -3 4 -6 -2 -5 -13z"/>
<path d="M401 394 c0 -11 3 -14 6 -6 3 7 2 16 -1 19 -3 4 -6 -2 -5 -13z"/>
<path d="M431 394 c0 -11 3 -14 6 -6 3 7 2 16 -1 19 -3 4 -6 -2 -5 -13z"/>
<path d="M210 392 c0 -12 19 -26 26 -19 2 2 -2 10 -11 17 -9 8 -15 8 -15 2z"/>
<path d="M460 385 c-8 -9 -8 -15 -2 -15 12 0 26 19 19 26 -2 2 -10 -2 -17 -11z"/>
<path d="M245 339 c4 -5 15 -9 25 -9 10 0 22 -5 25 -10 7 -12 -37 -4 -67 11
-26 14 -28 11 -16 -21 12 -35 22 -43 60 -45 23 -1 28 2 28 22 0 12 5 23 12 23
21 0 -6 20 -40 30 -20 5 -30 5 -27 -1z m-5 -39 c0 -5 8 -10 18 -10 14 0 15 2
2 10 -8 5 -10 10 -5 10 6 0 16 -4 24 -9 11 -7 10 -11 -7 -20 -16 -9 -24 -8
-36 5 -19 18 -20 24 -6 24 6 0 10 -4 10 -10z"/>
<path d="M412 337 c-22 -7 -31 -15 -27 -24 3 -8 5 -27 5 -41 0 -19 3 -23 9
-13 5 7 14 11 20 7 18 -11 48 12 60 45 10 28 9 30 -7 24 -32 -13 -76 -25 -79
-21 -2 2 10 8 26 14 17 6 31 13 31 16 0 4 -1 6 -2 5 -2 -1 -18 -6 -36 -12z
m18 -37 c-13 -8 -13 -10 2 -10 9 0 18 6 21 13 2 6 7 9 11 6 4 -4 0 -14 -9 -23
-13 -13 -21 -14 -37 -5 -17 9 -18 13 -7 20 8 5 19 9 24 9 6 0 3 -5 -5 -10z"/>
<path d="M211 243 c7 -12 15 -20 18 -17 3 2 -3 12 -13 22 -17 16 -18 16 -5 -5z"/>
<path d="M470 245 c-7 -9 -11 -17 -9 -20 3 -2 10 5 17 15 14 24 10 26 -8 5z"/>
<path d="M324 227 c3 -10 6 -21 6 -23 0 -12 29 -2 34 12 10 26 7 29 -8 9 -13
-18 -13 -18 -25 1 -11 17 -12 17 -7 1z"/>
<path d="M256 215 c-3 -9 -6 -24 -5 -33 0 -9 5 -4 10 12 9 32 6 48 -5 21z"/>
<path d="M426 205 c8 -37 14 -45 14 -19 0 10 -5 26 -10 34 -8 11 -9 7 -4 -15z"/>
<path d="M40 190 c-34 -7 -34 -7 -5 -8 17 0 44 4 60 8 27 7 27 8 5 8 -14 -1
-41 -4 -60 -8z"/>
<path d="M578 163 c12 -2 30 -2 40 0 9 3 -1 5 -23 4 -22 0 -30 -2 -17 -4z"/>
</g>
</svg>
